<svg width="315" height="66" viewBox="0 0 315 66" fill="none" xmlns="http://www.w3.org/2000/svg">
<path d="M53.9595 33.7309C52.7332 33.42 51.507 32.9925 50.2652 32.6117V30.49C53.486 31.547 57.157 31.2827 60.2692 29.9149C60.2149 29.3941 60.1373 28.8734 60.0519 28.3527C57.0794 29.9071 53.7499 30.1325 50.2652 29.6584V27.4745C51.1267 27.5289 51.9494 27.5833 52.7953 27.5289C55.1314 27.3035 57.289 26.4641 59.2525 25.1507C59.0973 24.6377 58.9266 24.1325 58.7403 23.6351C57.5528 24.5056 56.2878 25.2983 54.9296 25.7336V22.6481C55.8454 22.0808 56.6991 21.4124 57.4908 20.643C57.2502 20.1689 56.9863 19.7026 56.7147 19.244C56.0239 19.9746 55.2944 20.674 54.5028 21.2569H50.0401C49.9858 21.0471 49.9237 20.845 49.8616 20.643C50.1255 20.5264 50.3894 20.402 50.6533 20.2777C52.3762 19.4927 53.8275 18.1793 54.9063 16.5549C54.5804 16.1352 54.2466 15.7156 53.8974 15.3192C52.8729 17.2311 51.313 18.6378 49.5202 19.687C49.1787 18.8787 48.7363 18.1326 48.2085 17.4487C49.6676 16.2674 50.8473 14.7052 51.5768 12.9643C51.1655 12.5912 50.7386 12.2337 50.2963 11.884C49.6288 13.6327 48.6664 15.2104 47.3859 16.5083C47.1763 16.2984 46.959 16.0964 46.7339 15.9021C46.2062 15.4513 45.6396 15.0705 45.0498 14.7441C46.1984 13.3373 47.1375 11.8063 47.5411 9.96433C47.1065 9.70008 46.6641 9.45138 46.2139 9.21045C46.0665 11.1068 45.2593 12.8089 44.165 14.3166C43.288 13.9436 42.3567 13.6871 41.3633 13.5627C41.3866 13.5239 41.4176 13.485 41.4409 13.4462C42.543 11.713 42.9698 9.71563 43.0707 7.79596C42.5507 7.60167 42.023 7.42291 41.4952 7.2597C41.5573 9.35812 41.2624 11.542 40.1526 13.4462C40.1526 13.4462 40.1448 13.4617 40.137 13.4695C40.0361 13.4695 39.9352 13.4695 39.8266 13.4695C38.9729 13.4695 38.158 13.555 37.3741 13.7104C38.5771 11.3866 38.8177 8.8918 38.0881 6.47474C37.5992 6.39702 37.1025 6.32707 36.6058 6.27267C37.1878 8.25451 37.118 10.4384 36.6446 12.3425C36.435 12.9643 36.1556 13.555 35.8529 14.1456C34.8595 14.5109 33.9437 15.0239 33.0978 15.6845C33.2763 15.1171 33.4781 14.5498 33.6954 13.998C34.5103 11.3866 34.0291 8.63533 33.1443 6.125C32.6631 6.13277 32.1897 6.15609 31.7163 6.19495C33.1598 9.51356 33.1987 13.3607 31.6697 16.586C31.6697 16.7414 31.6697 16.8969 31.6542 17.0601C30.8548 17.985 30.2572 19.0497 29.8459 20.231C29.5975 18.2803 29.7372 16.213 30.0089 14.1923C30.5056 11.5265 29.9545 8.71305 28.2083 6.70012C27.7659 6.79339 27.3235 6.90219 26.8889 7.011C28.9766 10.0265 29.4113 13.757 28.899 17.3243C28.6584 18.6767 28.7671 19.9979 29.1241 21.2569H27.4943C27.1217 20.3476 26.8656 19.4072 26.8656 18.4357C26.8656 14.6819 26.074 10.928 23.769 8.05244C23.2723 8.25451 22.7833 8.46435 22.3099 8.68974C24.157 10.6249 25.5773 13.0964 25.5773 15.8554C25.6627 17.7596 26.0818 19.5782 26.7958 21.2647H26.3224V22.3139C26.2525 22.2284 26.1749 22.1429 26.0973 22.0574C25.6549 21.5756 25.1737 21.1714 24.6537 20.8295C24.4131 20.13 24.2424 19.3994 24.1105 18.6223C23.7457 17.3321 23.5594 16.042 23.0084 14.9306C22.6436 14.3788 22.4573 13.827 22.0848 13.2674C21.2233 12.1172 20.4705 11.0835 19.4849 10.2441C19.0502 10.5239 18.6156 10.8115 18.1965 11.1146C19.6246 12.1793 20.7965 13.586 21.7123 15.1171C22.7057 16.6793 22.8221 18.4513 23.412 20.2C22.7057 19.9202 21.9451 19.7492 21.1302 19.6792C21.0138 19.3917 20.9051 19.0963 20.7887 18.801C19.8186 16.3606 17.6998 14.643 15.5733 13.2596C15.1775 13.6249 14.7972 14.0057 14.4247 14.3943C16.8073 15.4669 18.4992 17.4254 19.8729 19.6559C18.9416 19.6948 18.0879 19.8658 17.2962 20.1689C16.039 18.5989 14.2617 17.4254 12.2826 16.9124C11.9644 17.3399 11.654 17.7751 11.3513 18.2181C13.0898 18.6456 14.6265 19.6093 16.1243 20.7362C15.4414 21.1481 14.836 21.6766 14.2927 22.3217C14.2229 22.4072 14.1608 22.5004 14.0909 22.5859C12.7716 21.7854 11.2504 21.2958 9.69042 21.2025C9.45759 21.6844 9.24027 22.174 9.03849 22.6637C10.5053 22.7258 11.9178 23.1766 13.3071 23.775C12.8569 24.5911 12.5465 25.4849 12.3602 26.4486C11.8635 26.2931 11.3513 26.1455 10.8391 25.9978C9.86892 25.8579 8.89879 25.9279 7.92866 25.9745C7.79672 26.4719 7.6803 26.9771 7.57165 27.4822C9.13938 27.2724 10.6916 27.4045 12.174 27.7854C12.1584 28.0651 12.1429 28.3372 12.1429 28.6247C12.1429 29.3087 12.1972 29.9226 12.2981 30.4822C10.5907 30.1092 8.77461 30.3579 7.09822 30.9796C7.06718 31.4382 7.04389 31.8889 7.03613 32.3552C8.78237 31.6558 10.6761 31.477 12.6086 31.6869C13.1208 33.1791 13.9823 34.1428 14.8515 34.7723C12.1895 34.4459 9.58952 34.5547 7.19136 35.7671C7.24568 36.2801 7.31553 36.793 7.4009 37.2982C9.32564 36.2101 11.3978 35.8293 13.5244 35.8371C12.399 36.6997 11.3047 37.5236 10.2259 38.2775L9.24028 38.9692L9.64385 39.5909C9.12386 39.8629 8.61939 40.166 8.14596 40.5002C8.30119 41.0132 8.46417 41.5183 8.65043 42.0157C9.20147 41.5261 9.79907 41.1297 10.4277 40.7956L12.0498 43.3214C11.328 43.8266 10.6062 44.394 9.94653 44.9924C10.1949 45.4743 10.451 45.9483 10.7304 46.4069C12.9966 43.8111 16.5201 42.5209 20.0437 41.8525C20.098 41.8448 20.1523 41.8292 20.2144 41.8137L13.245 47.5027L13.5554 47.9146C13.2139 48.3032 12.8802 48.6996 12.5698 49.1193C12.9035 49.5545 13.245 49.9742 13.6097 50.3861C13.8891 49.9664 14.1918 49.5623 14.51 49.1737L16.4503 51.7462C16.2563 52.0571 16.07 52.3757 15.8993 52.7099C16.2951 53.0674 16.6987 53.4094 17.1177 53.7436C17.4049 53.0674 17.7541 52.4301 18.15 51.8161L29.225 42.8784C28.6584 44.2541 27.8746 45.5287 26.8656 46.64C25.2048 48.3032 23.0006 49.4068 21.7123 51.4353C21.3475 51.9871 21.1613 52.5389 20.7887 53.0985C20.3929 53.8912 20.098 54.7772 19.8884 55.6866C20.3386 55.9586 20.8042 56.2228 21.2699 56.4715C21.6657 53.8835 22.892 51.3809 24.84 49.5934C26.757 48.1944 28.1773 46.4691 29.256 44.4095V47.8136C28.7205 48.5908 28.0996 49.3136 27.4167 49.9586C25.4531 52.0882 24.5063 54.9482 24.4519 57.8938C24.9254 58.0648 25.3988 58.228 25.88 58.3756C28.4023 59.215 31.0333 59.6502 33.7186 59.6502C36.404 59.6502 39.229 59.1917 41.8367 58.2902L42.0773 58.2047L40.8433 54.5441L40.6027 54.6296C40.0051 54.8394 39.3997 55.0104 38.7944 55.1658C38.6547 54.684 38.546 54.1866 38.4684 53.6581C38.2821 51.2643 38.8332 49.0493 38.6547 46.6478C38.3287 44.5494 37.5836 42.451 36.2953 40.7256C36.6446 40.609 36.986 40.4769 37.3198 40.3137C39.0194 42.0857 40.3388 44.3862 40.5018 46.8343C40.6726 50.7125 41.146 54.7462 43.6217 57.6606C44.1107 57.4663 44.5841 57.2565 45.0575 57.0389C44.1029 55.9119 43.257 54.5985 42.5274 53.2928C41.4254 50.8991 41.7901 48.1322 41.0528 45.5442L40.5018 43.881C40.137 43.3292 39.9508 42.7774 39.5782 42.2178C39.035 41.394 38.4839 40.679 37.7854 40.0572C38.0959 39.8862 38.3908 39.6919 38.6702 39.4821C41.4331 41.7826 43.0474 44.938 43.9167 48.6996V50.4405H44.3513C45.0187 52.4923 46.2527 54.2643 47.999 55.4068C48.4181 55.1425 48.8294 54.8627 49.233 54.5752C47.7274 53.4949 46.5632 52.0804 45.6862 50.4483H49.07C49.8539 51.3498 50.7231 52.127 51.7786 52.5078C52.1822 52.1348 52.578 51.754 52.9583 51.3576C51.9959 50.868 51.0801 50.2618 50.2497 49.5545V45.7851C50.9404 46.4768 51.6544 47.0286 52.4694 47.5727C53.0204 47.7592 53.5714 48.1245 54.1302 48.4975C54.3786 48.6607 54.7045 48.8317 55.0383 48.925C55.3797 48.4742 55.698 48.0157 56.0084 47.5494C53.7732 46.9898 51.864 45.723 50.2497 43.9976V40.8189C50.8551 41.4562 51.4992 42.0779 52.2908 42.5986C52.8419 42.9639 53.3929 43.1504 53.9517 43.5235C55.1159 43.9587 56.3964 44.6271 57.6925 44.6116C57.9331 44.1219 58.1582 43.6168 58.3755 43.1116C56.3576 42.9639 54.3786 42.4043 52.6634 41.3085C51.7864 40.679 51.018 39.9873 50.2575 39.3111V36.7464C52.0114 37.9743 53.618 39.2101 55.7988 39.6453C56.9708 39.793 58.2669 40.0572 59.4853 39.8785C59.625 39.3655 59.7492 38.8526 59.8579 38.3241C56.9164 38.6583 54.0216 38.3163 51.5613 36.5132C51.1422 36.1868 50.7076 35.8992 50.2575 35.635V33.6454C53.4395 35.1376 56.9785 36.1713 60.3468 34.7723C60.3779 34.2982 60.4012 33.8241 60.4089 33.3423C58.3134 34.0495 56.2024 34.3915 53.9517 33.7464L53.9595 33.7309ZM16.4037 41.5961L19.3374 39.3267L20.7732 40.9044C19.3452 41.2541 17.8628 41.3474 16.4037 41.5961ZM30.3115 41.2852V40.7023L29.8459 41.0753L27.7892 42.7308L17.3195 51.1788L17.0712 50.8524L15.2163 48.3887L14.6808 47.6815L18.6467 44.4484L22.5039 41.3007L22.3565 41.1375L21.852 40.5857L20.4395 39.0313L19.7875 38.3163L19.4461 37.9433L18.9571 38.3241L17.8473 39.1868L13.6253 42.4587L13.0277 42.9173L12.9501 42.8007L11.3901 40.3759L10.6683 39.2567L10.8391 39.1324C10.9167 39.078 10.9943 39.0236 11.0719 38.9692C12.4145 38.021 13.8038 37.0029 15.2396 35.9226C15.6354 35.6272 16.0234 35.3241 16.427 35.021C17.0789 34.5158 17.7464 34.0029 18.4138 33.4744C18.6855 33.2568 18.9649 33.0392 19.2365 32.8216C19.7643 32.4019 20.292 31.9822 20.8198 31.547C20.9595 31.4304 21.1069 31.3138 21.2466 31.1972C21.363 31.104 21.4795 31.0107 21.5959 30.9174C22.0305 30.5677 22.372 30.1946 22.6281 29.7983C22.76 29.604 22.8609 29.3941 22.9541 29.1921C23.1403 28.7491 23.2335 28.2828 23.2335 27.7776C23.2335 27.49 23.2024 27.218 23.1326 26.9615C23.1248 26.9149 23.1093 26.876 23.0938 26.8294C22.9618 26.4019 22.7445 26.0134 22.4263 25.6481C21.9451 25.0885 21.363 24.7932 20.6723 24.7465C20.6102 24.7465 20.5404 24.7388 20.4783 24.7388C20.3541 24.7388 20.2377 24.7388 20.1213 24.7543C19.3296 24.832 18.6932 25.174 18.2043 25.8035C18.1344 25.889 18.0724 25.9745 18.0103 26.0678C17.8395 26.3242 17.6998 26.6118 17.5912 26.9071C17.4282 27.3734 17.3351 27.8864 17.3351 28.4382C17.3351 28.6869 17.3506 28.9201 17.3739 29.1377C17.4437 29.7672 17.6222 30.2724 17.9171 30.6454C18.2198 31.0418 18.6467 31.306 19.2055 31.4382C19.221 31.4382 18.6156 31.9122 17.9094 32.4641C17.661 32.6583 17.3971 32.8604 17.1488 33.0547C16.4037 33.6376 15.7363 34.1428 15.7363 34.1428C14.7739 33.5832 14.122 32.8293 13.7106 31.8578C13.5709 31.5314 13.4623 31.1895 13.3847 30.8164C13.245 30.1713 13.1751 29.4408 13.1751 28.6325C13.1751 28.4537 13.1829 28.275 13.1984 28.0962C13.2217 27.6455 13.2683 27.2102 13.3459 26.7905C13.5166 25.8579 13.8115 24.9952 14.2462 24.2103C14.4479 23.845 14.6885 23.503 14.9524 23.1688C14.999 23.1067 15.0455 23.0445 15.0921 22.9823C15.6199 22.345 16.2407 21.8476 16.9392 21.4746C17.2497 21.3036 17.5757 21.1637 17.9249 21.0549C18.6622 20.8139 19.4693 20.6896 20.3463 20.6896C20.3929 20.6896 20.4317 20.6896 20.4783 20.6896C20.8586 20.6896 21.2311 20.7284 21.5881 20.7828C22.5117 20.9227 23.3421 21.2336 24.0717 21.6999C24.5296 21.9953 24.9564 22.3372 25.3367 22.7569C25.9964 23.4797 26.4776 24.3113 26.7958 25.2362C26.9898 25.8035 27.114 26.4019 27.1761 27.047C27.1916 27.2413 27.2071 27.4356 27.2149 27.6299C27.2149 27.661 27.2149 27.6999 27.2149 27.7309C26.9898 28.0107 26.788 28.3138 26.6018 28.6169C26.5785 28.6558 26.5552 28.6947 26.5319 28.7413C26.3301 29.0988 26.1439 29.4719 25.9964 29.8605C25.9421 30.0081 25.8877 30.1558 25.8334 30.3112C25.7248 30.6454 25.6394 30.9952 25.5695 31.3449C25.5463 31.477 25.523 31.6014 25.5074 31.7335C25.4609 32.0755 25.4376 32.433 25.4298 32.7827C25.4298 32.806 25.4298 32.8293 25.4298 32.8449C25.4298 32.876 25.4298 32.8993 25.4298 32.9226C25.36 33.0003 25.2901 33.0858 25.2125 33.1713C24.6537 33.7853 23.9087 34.4847 22.9851 35.2619L23.0782 35.363L23.4973 35.8215L24.4442 36.863L24.7857 37.236L25.7015 38.2386L26.0042 38.565L26.0197 38.5806L27.0286 37.7179C27.2071 37.9666 27.4011 38.2075 27.6107 38.4329C27.7271 38.5572 27.8435 38.6738 27.9599 38.7904C28.2083 39.0313 28.4644 39.2489 28.736 39.4588C28.8369 39.5365 28.9378 39.6064 29.0465 39.6842C29.3569 39.894 29.6751 40.0883 30.0089 40.2515C30.133 40.3137 30.265 40.3759 30.3969 40.438C30.7074 40.5779 31.0333 40.6945 31.367 40.7956C31.5223 40.8422 31.6775 40.881 31.8327 40.9199C32.1664 40.9976 32.5079 41.0598 32.8572 41.0909C33.0046 41.1064 33.1521 41.1142 33.2995 41.122C33.4392 41.122 33.5789 41.1297 33.7186 41.1297C33.9515 41.1297 34.1765 41.1142 34.4094 41.0987C34.4559 41.0987 34.5103 41.0987 34.5568 41.0909V49.4768H30.2883V41.293L30.3115 41.2852ZM18.4915 27.56C19.4926 28.2905 20.5481 28.9278 21.658 29.4019C21.4717 29.6428 21.2466 29.876 20.9672 30.1014C20.7577 30.2724 20.5559 30.4356 20.3463 30.6066L19.5625 30.4433C19.1511 30.3579 18.3906 30.2024 18.3906 28.4226C18.3906 28.1195 18.4216 27.832 18.4915 27.56ZM21.6812 26.3087C22.0538 26.7361 22.2245 27.2025 22.2245 27.762C22.2245 28.1195 22.1547 28.4537 22.0227 28.7724C20.8974 28.2361 19.8341 27.5289 18.8252 26.7206C18.8873 26.6196 18.9494 26.5185 19.027 26.433C19.3995 25.9667 19.8496 25.7569 20.5016 25.7569C20.9905 25.7569 21.3398 25.9201 21.6812 26.3087ZM26.1283 37.1505L25.6471 36.622C25.8256 36.4821 25.9964 36.3422 26.1749 36.2023C26.268 36.42 26.3767 36.6298 26.4931 36.8396L26.1283 37.1505ZM25.3445 36.2878L24.5373 35.3941C24.9254 35.2153 25.3134 35.0132 25.6937 34.7879C25.7791 35.1298 25.88 35.464 26.0042 35.7904C25.7868 35.9614 25.5695 36.1246 25.3445 36.2801V36.2878ZM28.3868 26.5185C28.3247 26.5729 28.2549 26.6273 28.1928 26.6895C28.1772 26.5729 28.1695 26.4641 28.154 26.3475C28.2316 26.402 28.3092 26.4641 28.3868 26.5185ZM40.5484 55.1969L41.4564 57.886C41.0606 58.0181 40.6648 58.1347 40.269 58.2435C39.7723 58.3834 39.2678 58.5078 38.7556 58.6166C37.7311 58.8342 36.6834 58.9819 35.6356 59.0596C35.1079 59.0984 34.5801 59.1218 34.0446 59.1295C33.9437 59.1295 33.8428 59.1295 33.7419 59.1295C32.7175 59.1295 31.7008 59.0674 30.6918 58.9352C30.1718 58.8731 29.6518 58.7876 29.1396 58.6865C28.0919 58.4845 27.0519 58.2124 26.0352 57.8782L26.9432 55.1892C27.6417 55.4223 28.3558 55.6166 29.0775 55.7721C29.5277 55.8731 29.9778 55.9586 30.428 56.0285C31.4136 56.184 32.4148 56.2617 33.4082 56.2772C33.8894 56.2772 34.3706 56.2772 34.8518 56.2539C35.8141 56.2073 36.7765 56.0907 37.7311 55.9119C38.1502 55.8342 38.5615 55.7487 38.9729 55.6399C39.5006 55.5078 40.0284 55.3524 40.5484 55.1814V55.1969ZM33.3383 55.6788C33.3383 55.6788 33.3384 55.741 33.3461 55.7721C32.3837 55.7565 31.4291 55.671 30.4745 55.5233C30.7074 53.7902 31.3826 52.1503 32.0888 50.5027H34.2619C33.7031 52.1814 33.2064 53.8835 33.3306 55.6788H33.3383ZM26.5241 54.0156C27.2304 52.3213 28.2626 50.9457 29.2871 49.4846V50.5027H30.9712C30.5832 51.1711 30.1951 51.8395 29.8459 52.5467C29.5121 53.4172 29.2793 54.3342 29.1551 55.2747C28.3868 55.1037 27.6262 54.8938 26.8812 54.6296L26.6406 54.5441L26.0507 56.2928C26.1516 55.5389 26.3146 54.7772 26.5397 54.0234L26.5241 54.0156ZM37.5759 48.855C37.2654 51.0545 37.1878 53.3083 37.6147 55.4223C36.6756 55.6011 35.721 55.7099 34.7741 55.7565C34.5413 54.0156 34.65 52.2203 35.1855 50.5027H35.6123V49.2436C36.2565 47.1608 36.1944 45.0779 35.6123 43.0494V40.9199C35.7132 40.8966 35.8141 40.8733 35.915 40.8422C37.3819 43.2515 38.0726 46.0571 37.5759 48.855ZM35.6123 39.6842C35.2786 39.7774 34.9371 39.8396 34.5801 39.8862C34.3085 39.9173 34.0291 39.9406 33.7419 39.9406C31.3593 39.9406 29.2483 38.7515 27.9599 36.9407C27.7582 36.6609 27.5796 36.3578 27.4167 36.0469C26.9588 35.1531 26.6871 34.1428 26.6561 33.078C26.6561 33.0003 26.6561 32.9226 26.6561 32.8371C26.6561 31.1273 27.2614 29.5651 28.2704 28.3372C28.5731 27.9641 28.9146 27.6299 29.2871 27.3268C29.6053 27.0626 29.9545 26.8294 30.3193 26.6273C31.336 26.06 32.5079 25.7336 33.7497 25.7336C34.0291 25.7336 34.3085 25.7491 34.5879 25.788C35.3174 25.8735 36.0159 26.0755 36.6601 26.3631C39.1203 27.4745 40.8433 29.9615 40.8433 32.8371C40.8433 36.1091 38.6236 38.8603 35.6201 39.6842H35.6123ZM43.6528 35.6972L43.8701 35.736C43.9089 35.736 43.94 35.7749 43.94 35.8138V35.8371C43.1483 35.6739 42.3722 35.5573 41.5806 35.5417C41.697 35.2075 41.7901 34.8578 41.8678 34.5081C42.0385 34.4848 42.2015 34.4692 42.3722 34.4537C42.4964 35.091 43.0009 35.5961 43.6606 35.6972H43.6528ZM43.94 37.9122C43.0086 37.4536 42.0152 37.1039 40.983 36.8707C41.1305 36.5987 41.2701 36.3189 41.3943 36.0314C42.2636 36.1324 43.1095 36.2723 43.9477 36.4899V37.9122H43.94ZM43.94 40.679C42.737 39.6298 41.534 38.7204 40.1293 38.122C40.3543 37.85 40.5639 37.5547 40.7579 37.2516C41.8988 37.5469 42.9621 38.0443 43.94 38.666V40.679ZM42.3489 34.0184C42.2092 34.034 42.0773 34.0573 41.9376 34.0806C41.9919 33.7231 42.023 33.3578 42.023 32.9925C42.574 32.806 43.1328 32.6739 43.6916 32.5884L43.5829 32.6117C42.8922 32.7516 42.3955 33.3345 42.3412 34.0184H42.3489ZM43.94 32.0755C43.3035 32.2153 42.6594 32.3941 42.023 32.6273C42.0152 32.1998 41.9686 31.7801 41.8988 31.376C42.5585 31.0029 43.2415 30.7154 43.94 30.5133V32.0755ZM41.8289 31.034C41.7436 30.6376 41.6272 30.2568 41.4797 29.8838C42.2636 29.262 43.0319 28.7335 43.94 28.3605V29.9537C43.2104 30.2413 42.5042 30.6143 41.8289 31.034ZM43.94 27.7076C43.0009 28.1351 42.1083 28.6947 41.2857 29.4252C41.146 29.1221 40.9907 28.8268 40.82 28.5392C41.5728 27.6843 42.3179 26.9382 43.3035 26.3709H43.9322V27.7076H43.94ZM40.5484 28.1195C40.3466 27.8242 40.1215 27.5444 39.8887 27.2802C40.0749 26.9615 40.2767 26.6507 40.494 26.3631H42.2713C41.6427 26.8683 41.0684 27.4434 40.5484 28.1118V28.1195ZM39.5317 26.9149C39.3377 26.7206 39.1281 26.5418 38.9185 26.3709H39.8732C39.7567 26.5496 39.6481 26.7284 39.5394 26.9149H39.5317ZM39.0427 39.2178C39.3066 39.0002 39.5472 38.7671 39.78 38.5184C41.2081 39.1712 42.4266 40.236 43.6528 41.3085C43.7537 41.4173 43.8468 41.5339 43.94 41.6505V45.5053C43.125 42.9095 41.3943 40.6323 39.0427 39.2178ZM49.2408 35.091V49.4224H44.9722V35.7904C44.9567 35.2542 44.5686 34.8112 44.0409 34.7257L43.8235 34.6868C43.6528 34.6557 43.5131 34.5547 43.4355 34.4148C43.3967 34.3371 43.3656 34.2516 43.3656 34.1583C43.3656 34.0728 43.3812 33.9951 43.4122 33.9252C43.4821 33.7697 43.614 33.6532 43.7925 33.6143L44.0796 33.5599C44.5841 33.4589 44.9489 33.0159 44.9722 32.5029V25.3372H37.2732C37.1878 25.2983 37.0947 25.2517 37.0093 25.2206C36.598 25.0419 36.1711 24.902 35.7288 24.7932C35.7132 24.7932 35.6977 24.7932 35.6822 24.7854C35.3407 24.6999 34.9915 24.6455 34.6422 24.6066C34.5103 24.5911 34.3706 24.5833 34.2309 24.5756C34.0679 24.5678 33.9127 24.56 33.7497 24.56C33.5091 24.56 33.2685 24.5755 33.0357 24.5911C32.8727 24.6066 32.7175 24.6222 32.5545 24.6455C32.1897 24.6999 31.8405 24.7776 31.4912 24.8709C31.3438 24.9175 31.1885 24.9641 31.0411 25.0108C30.7927 25.0963 30.5444 25.1973 30.3115 25.3061V25.2906H27.3701V22.2984H30.3969C30.5832 21.1248 30.9557 20.0523 31.499 19.1041C31.8094 18.5523 32.1897 18.0471 32.6166 17.573C32.896 17.2699 33.1909 16.9746 33.5091 16.7026C34.0058 16.2907 34.5413 15.9332 35.1001 15.6378C35.5891 15.3814 36.0935 15.1637 36.6213 14.9928C37.4983 14.713 38.4296 14.5575 39.423 14.5187C39.555 14.5187 39.6947 14.5187 39.8344 14.5187C40.1138 14.5187 40.3932 14.5264 40.6648 14.5498C41.6737 14.6197 42.6283 14.8373 43.5131 15.1793C43.808 15.2959 44.0952 15.4202 44.3668 15.5679C44.9722 15.8788 45.5387 16.2596 46.0742 16.7104C46.2683 16.8736 46.4545 17.0523 46.633 17.2233C46.9047 17.4876 47.1453 17.7751 47.3781 18.0704C47.8748 18.7155 48.2861 19.4228 48.6043 20.1922C48.7208 20.4797 48.8294 20.7751 48.9148 21.086C49.0312 21.4823 49.1399 21.8865 49.2097 22.3061H53.9051V25.2983H49.2408V35.0987V35.091Z" fill="#C19A5B"/>
<path d="M64.4527 26.5955C64.3596 26.5955 64.2665 26.5955 64.1733 26.6111C61.6976 14.448 52.1049 4.84968 39.9666 2.37044C39.9666 2.33935 39.9666 2.31603 39.9666 2.28495C39.9666 1.02589 38.9421 0 37.6849 0H29.7996C28.5423 0 27.5179 1.02589 27.5179 2.28495C27.5179 2.31603 27.5179 2.33935 27.5179 2.37044C15.3796 4.84968 5.78693 14.4558 3.31115 26.6111C3.21802 26.6033 3.12488 26.5955 3.03175 26.5955C1.77446 26.5955 0.75 27.6214 0.75 28.8805V36.7767C0.75 38.0358 1.77446 39.0617 3.03175 39.0617C3.12488 39.0617 3.21802 39.0617 3.31115 39.0461C5.77917 51.217 15.3718 60.8309 27.5256 63.3179C27.5256 63.3334 27.5256 63.3567 27.5256 63.3723C27.5256 64.6313 28.5501 65.6572 29.8074 65.6572H37.6926C38.9499 65.6572 39.9744 64.6313 39.9744 63.3723C39.9744 63.3567 39.9744 63.3334 39.9744 63.3179C52.1282 60.8309 61.7131 51.217 64.1889 39.0461C64.282 39.0539 64.3751 39.0617 64.4682 39.0617C65.7255 39.0617 66.75 38.0358 66.75 36.7767V28.8805C66.75 27.6214 65.7255 26.5955 64.4682 26.5955H64.4527ZM66.0826 36.7767C66.0826 37.6783 65.353 38.4088 64.4527 38.4088C64.3984 38.4088 64.3518 38.4088 64.2975 38.4088C64.0569 38.3855 63.8318 38.3078 63.6378 38.199C63.1489 37.9192 62.8229 37.3907 62.8229 36.7845V28.8882C62.8229 28.2898 63.1489 27.7613 63.6378 27.4815C63.8396 27.3649 64.0569 27.2872 64.2975 27.2639C64.3518 27.2639 64.3984 27.2561 64.4527 27.2561C65.353 27.2561 66.0826 27.9867 66.0826 28.8882V36.7845V36.7767ZM37.6849 0.652842C38.5696 0.652842 39.2914 1.36786 39.3147 2.24609C39.3147 2.26163 39.3147 2.2694 39.3147 2.28495C39.3147 2.51033 39.2681 2.72795 39.1827 2.92224C38.9344 3.50514 38.3523 3.91705 37.6849 3.91705H29.7996C29.1244 3.91705 28.5501 3.50514 28.3017 2.92224C28.2164 2.72795 28.1698 2.51033 28.1698 2.28495C28.1698 2.2694 28.1698 2.26163 28.1698 2.24609C28.1931 1.36009 28.9149 0.652842 29.7996 0.652842H37.6849ZM1.40193 28.8805C1.40193 27.9789 2.13147 27.2484 3.03175 27.2484C3.04727 27.2484 3.05503 27.2484 3.07055 27.2484C3.1016 27.2484 3.12488 27.2484 3.15593 27.2484C3.17145 27.2484 3.17921 27.2484 3.19473 27.2484C3.21026 27.2484 3.23354 27.2484 3.24906 27.2484C3.41204 27.2717 3.56726 27.3183 3.71472 27.3805C3.76129 27.4038 3.80786 27.4271 3.85442 27.4504C4.33561 27.7302 4.66933 28.2587 4.66933 28.8572V36.7534C4.66933 37.0565 4.58396 37.3441 4.4365 37.585C4.2968 37.826 4.09501 38.0203 3.85442 38.1601C3.65263 38.2767 3.43533 38.3544 3.19473 38.37C3.14817 38.37 3.09384 38.37 3.03951 38.37C2.61266 38.37 2.21684 38.199 1.92968 37.927C1.61148 37.6317 1.40969 37.2042 1.40969 36.7379V28.8416L1.40193 28.8805ZM28.457 64.2894C28.2862 64.0407 28.1853 63.7531 28.1776 63.4344C28.1776 63.4111 28.1776 63.3878 28.1776 63.3645C28.1776 63.1469 28.2241 62.9448 28.294 62.7505C28.3173 62.6961 28.3405 62.6495 28.3638 62.5951C28.6355 62.0821 29.1787 61.7246 29.7996 61.7246H37.6849C38.1428 61.7246 38.5619 61.9189 38.8568 62.222C39.0042 62.3697 39.1206 62.5484 39.1983 62.7427C39.2759 62.9293 39.3147 63.1391 39.3147 63.3567C39.3147 63.38 39.3147 63.4034 39.3147 63.4267C39.2914 63.9008 39.0741 64.3282 38.7248 64.6158C38.4454 64.8489 38.0807 64.9888 37.6849 64.9888H29.7996C29.2408 64.9888 28.7519 64.709 28.457 64.2816V64.2894ZM39.8424 62.6262C39.532 61.7246 38.686 61.0795 37.6849 61.0795H29.7996C28.7984 61.0795 27.9447 61.7324 27.6421 62.6262C15.7521 60.1858 6.37677 50.7662 3.9786 38.8518C4.77023 38.4943 5.32126 37.6938 5.32126 36.769V28.8727C5.32126 27.9478 4.77022 27.1551 3.98636 26.7976C6.39228 14.891 15.7754 5.47921 27.6576 3.04659C27.9758 3.93259 28.814 4.56989 29.8074 4.56989H37.6926C38.686 4.56989 39.5242 3.93259 39.8424 3.04659C51.7246 5.47921 61.1077 14.891 63.5136 26.7976C62.7298 27.1551 62.1787 27.9556 62.1787 28.8727V36.769C62.1787 37.6938 62.7298 38.4866 63.5214 38.8518C61.1232 50.774 51.7479 60.1936 39.858 62.6262H39.8424Z" fill="#C19A5B"/>
<path d="M45.1824 22.2762C45.1126 22.0275 45.0194 21.7943 44.9185 21.5689C44.6779 21.0171 44.352 20.5197 43.9562 20.0923C43.7466 19.8669 43.5215 19.657 43.2809 19.4705C43.2577 19.455 43.2421 19.4394 43.2189 19.4239C42.6756 19.0197 42.078 18.7244 41.4338 18.5379C41.0458 18.4291 40.6422 18.3591 40.2153 18.328C40.0756 18.3203 39.9437 18.3125 39.804 18.3125C38.7718 18.3125 37.8404 18.5457 37.01 19.0042C36.8082 19.113 36.6142 19.2374 36.4279 19.3773C36.3736 19.4161 36.3193 19.455 36.2649 19.4938C35.4268 20.1544 34.8214 21.0249 34.4644 22.0741C34.4411 22.1441 34.4178 22.2062 34.3945 22.2762H45.1746H45.1824ZM36.0244 21.2425C36.2727 20.885 36.5676 20.5741 36.9091 20.3021C37.5921 19.7659 38.3992 19.455 39.3073 19.3695C39.2219 19.4783 39.1365 19.5871 39.0512 19.7037C38.7097 20.2166 38.5234 20.7218 38.213 21.2347H36.0321L36.0244 21.2425ZM39.1133 21.2425C39.4159 20.7762 39.7652 20.3254 40.1532 19.8902C40.3007 19.727 40.4482 19.5638 40.5956 19.4006C41.2398 19.5016 41.8374 19.727 42.3651 20.0767C41.9383 20.4342 41.5269 20.8228 41.1389 21.2347H39.1133V21.2425ZM42.5204 21.2425C42.7221 21.0638 42.9239 20.885 43.1335 20.7218C43.2887 20.885 43.4362 21.056 43.5603 21.2425H42.5204Z" fill="#C19A5B"/>
<path d="M37.4368 28.5859H36.1484V37.6014H37.4368V28.5859Z" fill="#C19A5B"/>
<path d="M33.859 29.5952C33.6262 29.1911 33.3546 28.9501 33.2304 28.8413C33.1838 28.8025 33.1528 28.7791 33.1528 28.7791C32.788 28.5227 32.3456 28.375 31.8644 28.375C31.2668 28.375 30.7236 28.6082 30.32 28.989C29.8854 29.4009 29.606 29.9838 29.606 30.6366C29.606 31.2895 29.8776 31.8646 30.32 32.2765C30.3588 32.3076 30.3898 32.3465 30.4286 32.3775C30.8167 32.6962 31.3212 32.8905 31.8644 32.8905C32.1128 32.8905 32.3534 32.8516 32.5785 32.7739C32.5552 32.805 32.5319 32.8439 32.5086 32.8749C32.3767 33.0459 32.2292 33.1781 32.0662 33.2869C31.9576 33.3568 31.8412 33.4112 31.717 33.4578C31.5307 33.52 31.3289 33.5511 31.1116 33.5511C30.8477 33.5511 30.5839 33.4812 30.32 33.3413C30.3045 33.3413 30.2967 33.3257 30.2812 33.3257L29.4585 32.3542L29.2955 32.5019L28.5039 33.2014L29.2955 34.1029L30.1415 35.0744L32.3456 37.6003H33.9134L31.4609 34.7247C32.0817 34.6703 32.625 34.4526 33.0829 34.0718C33.2381 33.9475 33.3856 33.7998 33.5176 33.6366C33.7969 33.3024 34.0065 32.9371 34.1384 32.5563C34.1384 32.5563 34.1384 32.5408 34.1384 32.533C34.3325 31.8102 34.348 31.1962 34.2626 30.691C34.185 30.2403 34.0375 29.875 33.8668 29.5952H33.859ZM32.8579 31.2351C32.7802 31.375 32.6794 31.4993 32.5552 31.6003C32.4931 31.6548 32.4232 31.6936 32.3534 31.7325C32.2835 31.7713 32.2059 31.8024 32.1283 31.8257C32.0507 31.8491 31.9653 31.8646 31.8877 31.8724C31.8489 31.8724 31.8024 31.8724 31.7635 31.8724C31.2901 31.8724 30.8788 31.6081 30.6692 31.2195C30.5761 31.0408 30.5218 30.8387 30.5218 30.6211C30.5218 30.2325 30.7003 29.8828 30.9797 29.6574C31.0728 29.5796 31.1737 29.5175 31.2901 29.4708C31.3677 29.4398 31.4453 29.4164 31.523 29.4009C31.6006 29.3854 31.6859 29.3776 31.7713 29.3776C31.8179 29.3776 31.8567 29.3776 31.8955 29.3776C32.0197 29.3931 32.1438 29.4242 32.2525 29.4708C32.2913 29.4864 32.3301 29.5019 32.3612 29.5252C32.7492 29.7351 33.0131 30.147 33.0131 30.6211C33.0131 30.8387 32.9587 31.0408 32.8656 31.2195L32.8579 31.2351Z" fill="#C19A5B"/>
<path d="M28.2548 56.332L27.9443 58.003L28.9455 58.1895L28.9998 57.9253L28.3324 57.8009L28.4178 57.3502L29.0076 57.459L29.0231 57.3657L29.0542 57.2025L29.0231 57.1947L28.4643 57.0937L28.5419 56.6585L29.0231 56.7439L29.2094 56.7828L29.256 56.5108L29.0309 56.4719L28.2548 56.332Z" fill="#C19A5B"/>
<path d="M30.4365 57.6672C30.3977 57.5973 30.3433 57.5351 30.2812 57.4885C30.2192 57.4419 30.1338 57.3952 30.0329 57.3408C29.9553 57.302 29.901 57.2709 29.8544 57.2476C29.8078 57.2242 29.7768 57.1854 29.7535 57.1543C29.7302 57.1154 29.7224 57.0766 29.7302 57.0222C29.738 56.96 29.7613 56.9134 29.8078 56.8901C29.8544 56.8667 29.901 56.8512 29.963 56.859C30.0329 56.8667 30.0872 56.8978 30.126 56.9445C30.1648 56.9911 30.1803 57.0455 30.1803 57.1077L30.3977 57.1388L30.5451 57.1621C30.5451 57.0144 30.5063 56.8901 30.4132 56.789C30.4132 56.7812 30.3977 56.7735 30.3899 56.7735C30.2968 56.688 30.1726 56.6258 30.0096 56.6025C29.8389 56.5792 29.6914 56.6025 29.575 56.6724C29.4586 56.7424 29.3887 56.8512 29.3732 56.9911C29.3577 57.0999 29.3732 57.1854 29.4042 57.2553C29.443 57.3253 29.4896 57.3875 29.5517 57.4263C29.6138 57.4729 29.6914 57.5196 29.7923 57.5662C29.8699 57.6051 29.932 57.6362 29.9708 57.6672C30.0174 57.6906 30.0484 57.7294 30.0717 57.7683C30.095 57.8071 30.1027 57.8538 30.095 57.9082C30.0872 57.9704 30.0639 58.0092 30.0174 58.0481C29.9708 58.0869 29.9165 58.0947 29.8466 58.0792C29.769 58.0714 29.7069 58.0325 29.6681 57.9859C29.6293 57.9315 29.606 57.8693 29.606 57.7994L29.249 57.7527C29.249 57.8538 29.2645 57.947 29.3111 58.0325C29.3577 58.118 29.4275 58.188 29.5129 58.2424C29.5983 58.2968 29.7069 58.3356 29.8233 58.3512C29.9475 58.3667 30.0484 58.3589 30.1415 58.3279C30.2347 58.2968 30.3045 58.2501 30.3589 58.1802C30.4132 58.1102 30.4442 58.0403 30.4597 57.9548C30.4597 57.9237 30.4597 57.9004 30.4597 57.8693C30.4597 57.8227 30.4597 57.7761 30.4365 57.7294C30.4365 57.7139 30.4287 57.6906 30.4209 57.675L30.4365 57.6672Z" fill="#C19A5B"/>
<path d="M30.7158 56.9908L31.1815 57.0374L31.0418 58.4675L31.3833 58.4986L31.5152 57.0685L31.9886 57.1152L32.0119 56.8509L30.7391 56.7266L30.7158 56.9908Z" fill="#C19A5B"/>
<path d="M33.548 57.3257C33.486 57.1936 33.3851 57.0926 33.2531 57.0149C33.1212 56.9371 32.966 56.8983 32.7797 56.8905L32.1743 56.8672L32.1045 58.5692L32.7099 58.5926C32.8961 58.6003 33.0591 58.5692 33.191 58.5071C33.323 58.4449 33.4316 58.3439 33.5092 58.2195C33.5869 58.0952 33.6257 57.9475 33.6334 57.7765V57.761C33.6334 57.6133 33.6101 57.4812 33.5558 57.3568C33.5558 57.3491 33.5558 57.3335 33.548 57.3257ZM33.1212 58.1651C33.0203 58.2584 32.8728 58.2972 32.6866 58.2895H32.4537L32.5003 57.1781H32.7331C32.9194 57.1936 33.0591 57.248 33.1522 57.349C33.2454 57.4501 33.2919 57.59 33.2842 57.761C33.2842 57.9319 33.2221 58.0641 33.1134 58.1573L33.1212 58.1651Z" fill="#C19A5B"/>
<path d="M34.2852 56.9218L34.2929 57.2404L34.549 57.2327L34.5801 58.6238L34.9371 58.6161L34.8983 56.9062L34.2852 56.9218Z" fill="#C19A5B"/>
<path d="M36.2409 56.9917C36.14 56.8518 35.9615 56.7819 35.7131 56.8052C35.5889 56.813 35.4803 56.8441 35.3949 56.8985C35.3096 56.9529 35.2475 57.0306 35.2087 57.1161C35.1699 57.2093 35.1543 57.3104 35.1621 57.4192C35.1776 57.5979 35.2319 57.7378 35.3328 57.8311C35.4337 57.9244 35.5657 57.9632 35.7287 57.9554C35.8295 57.9554 35.9149 57.9166 35.9848 57.87C36.0546 57.8156 36.1012 57.7534 36.1245 57.6757C36.1477 57.8855 36.1322 58.0409 36.0934 58.142C36.0469 58.243 35.9692 58.2974 35.8606 58.3052C35.7131 58.313 35.62 58.2352 35.5812 58.072L35.3018 58.0953H35.2708C35.2863 58.1964 35.3173 58.2819 35.3716 58.3596C35.3794 58.3751 35.3949 58.3829 35.4027 58.3907C35.4493 58.4528 35.5036 58.4995 35.5812 58.5306C35.6666 58.5694 35.7675 58.585 35.8916 58.5772C36.1089 58.5617 36.2642 58.4762 36.3495 58.3052C36.4349 58.1342 36.4659 57.9088 36.4427 57.6057C36.4271 57.3415 36.3651 57.1316 36.2564 56.9917H36.2409ZM36.0003 57.5979C35.946 57.6523 35.8761 57.6834 35.7907 57.6834C35.7054 57.6834 35.6278 57.6679 35.5734 57.6213C35.5191 57.5746 35.4881 57.4969 35.4803 57.4036C35.4803 57.3104 35.4958 57.2404 35.5424 57.186C35.5889 57.1316 35.6588 57.1005 35.7442 57.0928C35.8451 57.0928 35.9227 57.1083 35.977 57.1627C36.0313 57.2171 36.0624 57.2871 36.0701 57.3803C36.0779 57.4736 36.0546 57.5435 35.9925 57.5979H36.0003Z" fill="#C19A5B"/>
<path d="M36.4824 56.7883L36.5212 57.0837L37.3051 56.9826L36.8549 58.4826L37.2042 58.436L37.6388 56.8971L37.6078 56.6484L36.4824 56.7883Z" fill="#C19A5B"/>
<path d="M37.8326 57.1148L38.0655 57.0682L38.1586 57.0526C38.1508 56.9671 38.1586 56.9049 38.1974 56.8505C38.2362 56.7961 38.2905 56.7651 38.3604 56.7495C38.4302 56.734 38.4846 56.7495 38.5311 56.7728C38.5777 56.8039 38.6087 56.8505 38.6243 56.9205C38.6553 57.0759 38.5544 57.177 38.3371 57.2158L38.2673 57.2314L38.3216 57.5034L38.3914 57.4878C38.5078 57.4645 38.6087 57.4723 38.6786 57.5034C38.7484 57.5345 38.7872 57.5889 38.8028 57.6744C38.8183 57.7443 38.8028 57.7987 38.7717 57.8531C38.7407 57.8998 38.6786 57.9386 38.6087 57.9464C38.5311 57.9619 38.4613 57.9464 38.4069 57.9153C38.4069 57.9153 38.3914 57.9153 38.3837 57.9075C38.3293 57.8687 38.2828 57.8065 38.2595 57.721L37.9335 57.7832C37.9801 57.9697 38.0732 58.094 38.1974 58.164C38.2983 58.2184 38.4225 58.2417 38.5544 58.2339C38.5932 58.2339 38.632 58.2339 38.6708 58.2184C38.8493 58.1873 38.9735 58.1174 39.0511 58.0086C39.1287 57.8998 39.1598 57.7754 39.1287 57.6277C39.0899 57.4257 38.9425 57.3091 38.7019 57.2858V57.2702C38.795 57.2391 38.8648 57.177 38.9037 57.0992C38.9502 57.0215 38.958 56.9283 38.9425 56.8195C38.9269 56.734 38.8881 56.664 38.8338 56.6018C38.7795 56.5397 38.7096 56.5008 38.6165 56.4697C38.5234 56.4386 38.4225 56.4464 38.3138 56.4697C38.1431 56.5008 38.0111 56.5708 37.9258 56.6796C37.9258 56.6796 37.9258 56.6796 37.918 56.6873C37.8326 56.7961 37.8016 56.9438 37.8249 57.1148H37.8326Z" fill="#C19A5B"/>
<path d="M96.7159 34.681C96.8785 31.9664 96.9418 29.7585 96.8876 28.0483C96.8424 26.3381 96.6888 25.1165 96.4267 24.3836C96.1105 23.4878 95.5954 22.6915 94.8725 21.9857C94.1496 21.2799 93.7792 20.8908 93.7521 20.8003C93.6798 20.6013 93.6888 20.4293 93.7701 20.2846C93.8515 20.1398 94.0231 20.0131 94.2671 19.9045C95.2611 19.4521 95.9659 19.1535 96.3725 18.9997C96.7882 18.8549 97.0863 18.7734 97.2761 18.7734C97.746 18.7734 98.1616 18.9182 98.5321 19.2078C98.8935 19.4973 99.1737 19.8955 99.3544 20.4022C99.4809 20.746 99.4809 22.592 99.3544 25.9309C99.2459 29.2427 99.1737 32.0568 99.1285 34.3823C99.1194 34.7262 99.1104 35.2058 99.1014 35.8211C99.0652 38.8976 98.6044 40.4359 97.7189 40.4359C96.8333 40.4359 95.9568 39.522 95.0713 37.6851C94.9629 37.4589 94.8725 37.2779 94.8093 37.1512C93.8966 35.2329 92.6949 33.3327 91.231 31.4415C89.7582 29.5504 88.2311 27.9578 86.6588 26.6639C85.7552 25.9219 84.9329 25.3156 84.192 24.8541C83.4601 24.3836 82.7282 24.0126 82.0143 23.723C81.0836 23.343 79.9902 23.0896 78.7342 22.972C78.3367 22.9358 78.0565 22.8996 77.9029 22.8544C77.6228 22.791 77.3969 22.6734 77.2433 22.5015C77.0897 22.3296 76.9451 22.0671 76.8186 21.6962C76.7373 21.4699 76.7283 21.2799 76.7915 21.1351C76.8548 20.9904 77.0355 20.8094 77.3337 20.6013C78.1108 20.0764 78.8156 19.6964 79.4571 19.4792C80.0987 19.2621 80.7945 19.1535 81.5444 19.1535C83.948 19.1535 86.5413 20.5741 89.3425 23.4244C92.1437 26.2748 94.5834 30.0209 96.6797 34.6629L96.7159 34.681ZM81.8517 25.1165C82.683 25.4604 83.2251 25.7318 83.4601 25.9219C83.704 26.1119 83.8757 26.3562 83.9751 26.6458C84.1016 27.0077 84.192 27.9488 84.2372 29.4599C84.2823 30.971 84.2643 32.6722 84.1739 34.5633C84.0745 36.6988 83.8125 38.219 83.3878 39.1329C82.9631 40.0468 82.3035 40.4992 81.4089 40.4992C80.8848 40.4992 80.3155 40.3364 79.7192 40.0197C79.1228 39.6939 78.4361 39.1872 77.659 38.4995C77.6409 37.8299 77.659 37.2779 77.6861 36.8526C77.7222 36.4273 77.7945 36.0563 77.8939 35.7396C77.9481 35.7396 78.0294 35.7397 78.1198 35.7577C78.2102 35.7668 78.2824 35.7758 78.3186 35.7758C79.8005 35.7758 80.8035 35.0339 81.3276 33.5499C81.8517 32.0659 82.0233 29.2518 81.8426 25.1075L81.8517 25.1165Z" fill="#C19A5B"/>
<path d="M109.926 40.5062C108.698 40.5062 107.433 39.9633 106.14 38.8865C104.848 37.8006 103.927 36.4976 103.384 34.9503C103.014 33.9007 102.896 32.8963 103.032 31.9281C103.168 30.9598 103.556 30.0369 104.207 29.1501C104.677 28.4986 105.21 27.9557 105.788 27.5395C106.375 27.1232 106.854 26.9151 107.216 26.9151C107.405 26.9151 107.577 26.9694 107.722 27.078C107.866 27.1866 107.975 27.3313 108.038 27.5123C108.11 27.7204 108.038 28.0371 107.812 28.4534C107.667 28.7339 107.559 28.9601 107.487 29.132C107.216 29.8559 107.071 30.616 107.053 31.4213C107.035 32.2267 107.161 32.9867 107.423 33.7197C107.74 34.6065 108.183 35.3303 108.752 35.9095C109.321 36.4795 109.89 36.7691 110.46 36.7691C111.002 36.7691 111.58 36.5791 112.213 36.2081C112.845 35.8371 113.243 35.647 113.414 35.647C113.586 35.647 113.758 35.7013 113.911 35.819C114.074 35.9366 114.182 36.0723 114.237 36.2352C114.327 36.4886 114.291 36.7781 114.119 37.1129C113.957 37.4477 113.604 37.9002 113.08 38.4702C112.42 39.2032 111.833 39.728 111.336 40.0447C110.839 40.3614 110.36 40.5243 109.908 40.5243L109.926 40.5062ZM114.481 27.5123C114.797 28.4081 114.833 29.2587 114.598 30.0821C114.354 30.8965 113.866 31.6204 113.107 32.2357C112.592 32.67 112.014 33.0229 111.372 33.2853C110.74 33.5568 110.198 33.6925 109.746 33.6925C109.583 33.6925 109.411 33.6201 109.222 33.4663C109.032 33.3125 108.914 33.1587 108.851 32.9867C108.77 32.7696 108.932 32.5072 109.321 32.2086C109.538 32.0547 109.692 31.9281 109.791 31.8376C110.125 31.5028 110.342 31.1227 110.451 30.6974C110.559 30.2721 110.541 29.865 110.405 29.4759C110.297 29.1773 110.089 28.8515 109.764 28.4986C109.439 28.1457 109.258 27.8924 109.195 27.7295C109.05 27.3223 109.294 26.9965 109.917 26.7522C110.098 26.6798 110.234 26.6165 110.315 26.5803C110.604 26.4536 110.975 26.2365 111.426 25.9198C111.878 25.603 112.24 25.4492 112.52 25.4492C112.881 25.4492 113.243 25.6392 113.604 26.0193C113.957 26.3993 114.246 26.9061 114.472 27.5304L114.481 27.5123Z" fill="#C19A5B"/>
<path d="M122.46 39.7763C122.451 40.2559 122.46 40.6178 122.478 40.8621C122.496 41.1064 122.541 41.3055 122.604 41.4865C122.713 41.7941 122.984 42.1742 123.418 42.6266C123.851 43.079 124.095 43.3777 124.15 43.5315C124.249 43.821 124.204 44.1649 124.014 44.563C123.815 44.9612 123.481 45.4045 122.984 45.8932C122.641 46.2189 122.306 46.4632 121.981 46.6352C121.656 46.8071 121.348 46.8885 121.059 46.8885C120.508 46.8885 119.948 46.6261 119.379 46.0922C118.809 45.5674 118.385 44.9069 118.104 44.1196C117.861 43.4229 117.743 42.3461 117.761 40.8712C117.761 40.6631 117.761 40.5092 117.77 40.4097L117.906 31.6959C117.906 31.2163 117.897 30.7819 117.861 30.4019C117.824 30.0219 117.779 29.7594 117.725 29.6056C117.635 29.3523 117.273 29.0175 116.632 28.6012C115.99 28.185 115.611 27.814 115.493 27.4792C115.33 27.0177 115.665 26.701 116.487 26.5381C116.641 26.511 116.758 26.4838 116.848 26.4657C117.273 26.3752 117.851 26.1943 118.592 25.9228C119.333 25.6514 119.885 25.5156 120.228 25.5156C120.689 25.5156 121.141 25.6785 121.592 26.0133C122.044 26.3481 122.342 26.7462 122.514 27.2077C122.577 27.3887 122.622 27.6783 122.659 28.0583C122.695 28.4383 122.704 28.9179 122.704 29.488L122.46 39.7763ZM131.288 30.1938C131.758 31.5149 131.921 32.7998 131.794 34.0485C131.668 35.2972 131.252 36.4011 130.547 37.3513C129.96 38.1385 129.146 38.7809 128.107 39.2877C127.068 39.7853 126.02 40.0387 124.972 40.0387C124.61 40.0387 124.294 39.9573 124.05 39.8125C123.797 39.6587 123.625 39.4415 123.526 39.161C123.382 38.7447 123.662 38.3828 124.375 38.0661C124.863 37.858 125.234 37.6589 125.46 37.4779C126.264 36.8355 126.779 35.9578 127.014 34.8538C127.249 33.7499 127.159 32.6188 126.761 31.4787C126.562 30.9086 126.327 30.4833 126.074 30.2028C125.812 29.9223 125.451 29.6961 124.981 29.5332C124.9 29.5061 124.791 29.4699 124.656 29.4156C124.059 29.2256 123.707 28.9632 123.589 28.6374C123.445 28.2302 123.797 27.7235 124.647 27.1082C124.755 27.0358 124.836 26.9725 124.891 26.9363C125.469 26.5019 125.921 26.2033 126.264 26.0495C126.598 25.8866 126.906 25.8142 127.186 25.8142C127.936 25.8142 128.695 26.2214 129.463 27.0358C130.231 27.8502 130.845 28.9089 131.306 30.2209L131.288 30.1938Z" fill="#C19A5B"/>
<path d="M143.17 29.1618C142.872 28.7185 142.556 28.4017 142.24 28.2117C141.923 28.0217 141.535 27.9222 141.092 27.9222C140.649 27.9222 140.225 28.0489 139.872 28.2932C139.52 28.5375 139.204 28.9266 138.932 29.4333C138.481 30.2658 138.219 31.2068 138.137 32.2474C138.065 33.288 138.192 34.2653 138.517 35.1882C138.707 35.7311 138.951 36.1112 139.258 36.3465C139.565 36.5817 139.981 36.6994 140.505 36.6994C140.568 36.6994 140.704 36.6994 140.884 36.6813C141.065 36.6632 141.228 36.6632 141.336 36.6632C141.517 36.6632 141.688 36.7084 141.833 36.8079C141.987 36.9075 142.086 37.0342 142.14 37.188C142.194 37.3509 142.185 37.5137 142.104 37.6857C142.023 37.8576 141.797 38.12 141.426 38.4819L141.354 38.5543C140.152 39.794 139.204 40.4183 138.526 40.4183C137.722 40.4183 136.89 40.0112 136.05 39.1968C135.21 38.3824 134.568 37.3599 134.134 36.1293C133.692 34.8806 133.538 33.6138 133.683 32.3379C133.827 31.062 134.243 29.9129 134.93 28.8813C135.562 27.9493 136.33 27.2254 137.252 26.7187C138.164 26.212 139.131 25.9586 140.152 25.9586C140.767 25.9586 141.345 26.0401 141.887 26.212C142.429 26.3839 142.944 26.6463 143.45 26.9992L143.559 26.2934C143.595 25.9948 143.758 25.7776 144.038 25.651C144.318 25.5243 144.761 25.4609 145.348 25.4609C146.026 25.4609 146.577 25.5514 147.002 25.7233C147.426 25.8953 147.688 26.1486 147.806 26.4744C147.878 26.6735 147.869 27.4788 147.779 28.8813C147.697 30.2205 147.634 31.3426 147.607 32.2565C147.607 32.4827 147.58 32.7994 147.553 33.1975C147.49 34.0119 147.517 34.591 147.634 34.9258C147.752 35.2516 148.032 35.6497 148.474 36.1202C148.917 36.5908 149.161 36.8894 149.206 37.0251C149.315 37.3237 149.27 37.6676 149.071 38.0657C148.872 38.4638 148.529 38.8982 148.032 39.3959C147.697 39.7216 147.363 39.975 147.047 40.1469C146.722 40.3188 146.414 40.4093 146.134 40.4093C145.574 40.4093 145.014 40.1378 144.444 39.604C143.875 39.0611 143.441 38.3915 143.152 37.568C143.008 37.1518 142.908 36.6903 142.872 36.1836C142.827 35.6769 142.836 34.9258 142.89 33.9305L143.179 29.1709L143.17 29.1618Z" fill="#C19A5B"/>
<path d="M164.521 32.4864C164.503 32.966 164.503 33.4094 164.53 33.7985C164.557 34.1966 164.611 34.4952 164.684 34.6943C164.882 35.2644 165.244 35.7892 165.777 36.2778C166.301 36.7665 166.581 37.0379 166.599 37.0922C166.653 37.237 166.617 37.5265 166.5 37.9699C166.382 38.4133 166.202 38.8748 165.949 39.3725C165.614 40.033 165.181 40.5759 164.638 40.9831C164.096 41.3903 163.554 41.5984 163.021 41.5984C162.343 41.5984 161.693 41.336 161.078 40.8021C160.464 40.2773 160.003 39.5806 159.705 38.721C159.379 37.7889 159.28 36.0245 159.425 33.4456C159.452 33.0203 159.461 32.6946 159.479 32.4502L159.741 27.6183C159.777 26.822 159.768 26.089 159.723 25.4285C159.678 24.7679 159.596 24.2612 159.47 23.9264C159.307 23.474 158.901 23.0306 158.241 22.5872C157.581 22.1438 157.184 21.7276 157.039 21.3295C156.922 20.9947 156.922 20.7322 157.048 20.5422C157.175 20.3522 157.41 20.2617 157.753 20.2617C157.907 20.2617 158.304 20.3251 158.937 20.4608C159.569 20.5875 160.093 20.6508 160.509 20.6508C160.925 20.6508 161.376 20.5875 161.937 20.4608C162.497 20.3341 162.894 20.2617 163.12 20.2617C163.545 20.2617 163.916 20.3522 164.241 20.5422C164.566 20.7322 164.783 20.9766 164.891 21.2752C165.009 21.6009 165.045 22.0805 165.009 22.7049C165.009 22.8315 165.009 22.9311 165 22.9944L164.53 32.5045L164.521 32.4864ZM172.292 30.8848C171.967 30.6134 171.659 30.3238 171.37 30.0162C171.081 29.7085 170.81 29.3647 170.539 29.0027C171.388 28.306 171.93 27.7088 172.156 27.193C172.391 26.6772 172.391 26.1162 172.174 25.5009C171.949 24.8584 171.56 24.3246 171.027 23.9083C170.494 23.4921 169.924 23.284 169.328 23.284C168.849 23.284 168.397 23.4106 167.982 23.664C167.566 23.9174 167.304 24.0441 167.214 24.0441C167.015 24.0441 166.798 23.9626 166.572 23.7907C166.346 23.6188 166.202 23.4468 166.138 23.2478C165.912 22.6144 166.256 21.9538 167.168 21.2752C168.081 20.5965 169.256 20.2617 170.683 20.2617C172.111 20.2617 173.358 20.6599 174.56 21.4561C175.762 22.2524 176.575 23.2478 176.991 24.4241C177.497 25.8447 177.343 27.1115 176.539 28.2064C175.735 29.3104 174.316 30.1971 172.274 30.8848H172.292ZM166.202 31.2739C166.175 30.9844 166.175 30.7039 166.184 30.4143C166.193 30.1247 166.238 29.8533 166.301 29.5728C167.277 29.5728 168.226 29.7809 169.129 30.2062C170.042 30.6315 171.217 31.4458 172.671 32.6584C173.033 32.957 173.521 33.3732 174.135 33.9161C175.852 35.4272 177.117 36.1783 177.93 36.1783C178.509 36.1783 178.96 35.9249 179.295 35.4182C179.629 34.9115 179.864 34.6581 179.982 34.6581C180.433 34.6581 180.894 34.8662 181.364 35.2825C181.834 35.6987 182.177 36.2054 182.385 36.7936C182.819 38.0152 182.692 39.1191 182.006 40.1054C181.319 41.0917 180.334 41.5803 179.051 41.5803C177.849 41.5803 176.593 41.0736 175.274 40.0511C173.955 39.0286 172.554 37.4813 171.063 35.4091C170.15 34.1423 169.346 33.2194 168.65 32.6403C167.955 32.0612 167.123 31.6087 166.175 31.2739H166.202Z" fill="#C19A5B"/>
<path d="M184.562 33.1033C184.562 32.66 184.562 32.2437 184.517 31.8365C184.481 31.4384 184.436 31.1579 184.382 30.995C184.291 30.7416 183.921 30.4068 183.27 29.9906C182.62 29.5744 182.231 29.2034 182.123 28.8686C181.96 28.4071 182.285 28.0994 183.108 27.9456C183.279 27.9094 183.397 27.8823 183.478 27.8551C183.912 27.7646 184.499 27.5927 185.249 27.3213C185.999 27.0498 186.55 26.9141 186.894 26.9141C187.354 26.9141 187.806 27.0769 188.258 27.4027C188.701 27.7284 189.008 28.1266 189.18 28.5971C189.234 28.76 189.279 29.0405 189.306 29.4477C189.333 29.8549 189.342 30.3254 189.333 30.8593L189.153 36.2161C189.153 36.3789 189.171 36.5509 189.198 36.7228C189.234 36.8947 189.279 37.0757 189.342 37.2567C189.442 37.5372 189.586 37.7543 189.785 37.9263C189.984 38.0982 190.237 38.2249 190.571 38.3063C190.671 38.3335 190.788 38.3606 190.933 38.3968C191.448 38.5144 191.755 38.7225 191.863 39.0302C191.936 39.2293 191.918 39.4283 191.809 39.6184C191.701 39.8084 191.475 40.0255 191.123 40.2699C190.508 40.6861 189.939 40.9938 189.424 41.2019C188.909 41.41 188.412 41.5095 187.96 41.5095C187.219 41.5095 186.532 41.2924 185.909 40.849C185.276 40.4146 184.842 39.8627 184.608 39.1931C184.445 38.7316 184.382 37.9987 184.436 36.9852C184.454 36.8133 184.454 36.6866 184.454 36.5961L184.58 33.0762L184.562 33.1033ZM197.24 34.4425C197.24 34.4878 197.24 34.5602 197.24 34.6416C197.204 35.275 197.24 35.7546 197.357 36.0803C197.475 36.4061 197.746 36.8042 198.189 37.2657C198.622 37.7272 198.866 38.0258 198.921 38.1706C199.02 38.4601 198.975 38.7949 198.776 39.184C198.577 39.5731 198.234 40.0075 197.737 40.5142C197.393 40.8399 197.059 41.0933 196.734 41.2652C196.409 41.4371 196.101 41.5276 195.821 41.5276C195.261 41.5276 194.701 41.2562 194.131 40.7223C193.562 40.1884 193.138 39.5098 192.839 38.6863C192.604 38.0258 192.514 36.5418 192.568 34.2616C192.604 32.6328 192.622 31.3117 192.604 30.2802C192.604 30.1173 192.604 29.882 192.586 29.5834C192.532 27.8099 193.237 26.9322 194.701 26.9322C195.351 26.9322 195.948 27.0588 196.472 27.3122C196.996 27.5656 197.33 27.8823 197.457 28.2533C197.529 28.4523 197.547 28.8776 197.52 29.5201V29.692L197.231 34.4425H197.24Z" fill="#C19A5B"/>
<path d="M208.932 37.9533C209.023 38.2157 208.824 38.5957 208.345 39.0934L208.255 39.1929C208.146 39.3015 208.002 39.4463 207.821 39.6363C206.61 40.8941 205.725 41.5275 205.164 41.5275C204.469 41.5275 203.664 41.0388 202.734 40.0616C201.812 39.0843 201.125 37.9894 200.701 36.7679C200.195 35.3472 200.032 33.9176 200.204 32.4969C200.375 31.0763 200.845 29.8638 201.631 28.8775C202.137 28.2622 202.752 27.7916 203.493 27.4749C204.225 27.1492 205.038 26.9953 205.923 26.9953C206.664 26.9953 207.279 27.0949 207.776 27.2939C208.273 27.493 208.58 27.7554 208.698 28.0902C208.869 28.5698 208.463 28.8322 207.478 28.8865C206.945 28.9137 206.574 28.9679 206.375 29.0313C205.544 29.3389 204.966 30.1262 204.649 31.402C204.333 32.6779 204.405 33.9628 204.857 35.2568C205.074 35.8811 205.408 36.3878 205.842 36.7679C206.276 37.1479 206.746 37.3379 207.243 37.3379C207.27 37.3379 207.36 37.3289 207.514 37.3108C207.667 37.2927 207.803 37.2836 207.929 37.2836C208.182 37.2836 208.39 37.3379 208.562 37.4556C208.734 37.5732 208.86 37.7361 208.932 37.9623V37.9533ZM214.444 34.4333C214.444 34.7681 214.453 35.1029 214.499 35.4377C214.535 35.7725 214.589 36.0259 214.652 36.2069C214.761 36.5145 215.014 36.8855 215.411 37.3198C215.809 37.7542 216.035 38.0347 216.071 38.1523C216.179 38.4509 216.134 38.7948 215.944 39.202C215.755 39.6001 215.42 40.0435 214.932 40.5231C214.598 40.8398 214.264 41.0841 213.929 41.2651C213.595 41.446 213.279 41.5275 212.99 41.5275C212.429 41.5275 211.869 41.256 211.3 40.7221C210.731 40.1792 210.297 39.5096 210.008 38.6862C209.764 38.0075 209.673 37.0574 209.737 35.8449C209.737 35.492 209.755 35.2206 209.755 35.0486L209.827 26.4796C209.827 26.009 209.827 25.5838 209.782 25.1947C209.746 24.8146 209.7 24.5341 209.637 24.3622C209.547 24.0998 209.176 23.765 208.526 23.3487C207.875 22.9325 207.487 22.5615 207.378 22.2267C207.225 21.7833 207.541 21.4847 208.327 21.3309C208.508 21.3037 208.652 21.2766 208.752 21.2585C209.185 21.159 209.782 20.978 210.523 20.6975C211.264 20.417 211.806 20.2812 212.158 20.2812C212.619 20.2812 213.071 20.4532 213.523 20.788C213.975 21.1228 214.282 21.53 214.444 22.0005C214.508 22.1724 214.544 22.4348 214.571 22.7696C214.598 23.1135 214.598 23.6021 214.58 24.2355L214.435 34.4333H214.444Z" fill="#C19A5B"/>
<path d="M218.963 33.1019C218.981 32.6857 218.963 32.2785 218.936 31.8803C218.9 31.4731 218.846 31.1836 218.782 31.0026C218.692 30.7493 218.33 30.4145 217.689 29.9982C217.047 29.582 216.668 29.211 216.55 28.8762C216.388 28.4147 216.713 28.107 217.535 27.9532C217.707 27.917 217.833 27.8899 217.924 27.8627C218.349 27.7722 218.927 27.5913 219.677 27.3108C220.427 27.0303 220.969 26.8945 221.312 26.8945C221.773 26.8945 222.225 27.0574 222.659 27.3922C223.101 27.727 223.4 28.1342 223.571 28.6138C223.644 28.8038 223.689 29.1205 223.734 29.5548C223.77 29.9892 223.779 30.4325 223.752 30.885L223.526 34.4501C223.526 34.4954 223.526 34.5768 223.508 34.6945C223.481 35.2917 223.517 35.7441 223.635 36.0608C223.743 36.3775 224.023 36.7666 224.457 37.2371C224.9 37.7077 225.144 38.0063 225.189 38.151C225.297 38.4497 225.252 38.7935 225.053 39.1916C224.854 39.5898 224.511 40.0241 224.023 40.5218C223.68 40.8475 223.345 41.1009 223.02 41.2728C222.695 41.4447 222.388 41.5352 222.108 41.5352C221.547 41.5352 220.978 41.2638 220.4 40.7299C219.821 40.196 219.388 39.5174 219.099 38.694C218.836 37.9429 218.746 36.7576 218.836 35.1469V35.0745L218.954 33.111L218.963 33.1019ZM231.234 28.1704C231.306 28.3785 231.297 28.849 231.207 29.5639C231.116 30.2787 230.945 31.0388 230.701 31.8351C230.592 32.1699 230.493 32.3871 230.403 32.4685C230.312 32.559 230.195 32.5952 230.05 32.5952C229.915 32.5952 229.634 32.5137 229.192 32.3599C228.749 32.2061 228.415 32.1246 228.162 32.1246C227.647 32.1246 227.186 32.2513 226.797 32.5137C226.4 32.7761 226.156 32.9028 226.065 32.9028C225.839 32.9028 225.641 32.8214 225.451 32.6585C225.261 32.4956 225.126 32.2785 225.026 32.007C224.863 31.5546 224.882 30.9845 225.08 30.2968C225.27 29.6091 225.613 28.9576 226.092 28.3423C226.481 27.8627 226.906 27.5008 227.366 27.2565C227.827 27.0122 228.342 26.8945 228.894 26.8945C229.445 26.8945 229.96 27.0122 230.384 27.2384C230.809 27.4736 231.089 27.7813 231.234 28.1613V28.1704Z" fill="#C19A5B"/>
<path d="M242.501 30.2986C242.203 29.8552 241.887 29.5385 241.571 29.3484C241.254 29.1584 240.866 29.0589 240.423 29.0589C239.98 29.0589 239.556 29.1856 239.203 29.4299C238.851 29.6742 238.535 30.0633 238.264 30.57C237.812 31.4025 237.55 32.3435 237.468 33.3841C237.396 34.4247 237.523 35.402 237.848 36.3249C238.038 36.8679 238.282 37.2479 238.589 37.4832C238.896 37.7184 239.312 37.8361 239.836 37.8361C239.899 37.8361 240.035 37.8361 240.215 37.818C240.405 37.8089 240.559 37.7999 240.667 37.7999C240.848 37.7999 241.02 37.8451 241.164 37.9447C241.318 38.0442 241.417 38.1709 241.471 38.3247C241.526 38.4876 241.517 38.6505 241.435 38.8224C241.354 38.9943 241.128 39.2567 240.757 39.6187L240.685 39.691C239.483 40.9307 238.535 41.5551 237.857 41.5551C237.053 41.5551 236.221 41.1479 235.381 40.3335C234.541 39.5191 233.899 38.4966 233.465 37.266C233.023 36.0173 232.869 34.7505 233.014 33.4746C233.158 32.1988 233.574 31.0496 234.261 30.018C234.893 29.086 235.661 28.3621 236.583 27.8554C237.496 27.3487 238.462 27.0953 239.483 27.0953C240.098 27.0953 240.676 27.1768 241.218 27.3487C241.76 27.5206 242.276 27.783 242.782 28.1359L242.89 27.4301C242.926 27.1315 243.089 26.9144 243.369 26.7877C243.649 26.661 244.083 26.5977 244.679 26.5977C245.357 26.5977 245.917 26.6881 246.333 26.8601C246.748 27.032 247.019 27.2854 247.137 27.6111C247.209 27.8102 247.2 28.6155 247.11 30.018C247.028 31.3572 246.965 32.4793 246.938 33.3932C246.938 33.6194 246.911 33.9361 246.884 34.3343C246.821 35.1486 246.848 35.7277 246.965 36.0625C247.083 36.3883 247.363 36.7864 247.806 37.257C248.248 37.7275 248.492 38.0261 248.537 38.1618C248.646 38.4604 248.601 38.8043 248.402 39.2024C248.203 39.6006 247.86 40.0349 247.354 40.5326C247.019 40.8583 246.685 41.1117 246.369 41.2836C246.044 41.4555 245.736 41.546 245.456 41.546C244.896 41.546 244.336 41.2746 243.766 40.7407C243.197 40.1978 242.773 39.5282 242.483 38.7047C242.339 38.2885 242.239 37.827 242.203 37.3203C242.158 36.8136 242.167 36.0625 242.221 35.0672L242.51 30.3076L242.501 30.2986Z" fill="#C19A5B"/>
<path d="M253.679 20.345C254.149 20.345 254.61 20.5169 255.071 20.8517C255.522 21.1865 255.839 21.5937 256.001 22.0642C256.119 22.4081 256.164 24.634 256.11 28.7421C256.064 32.5878 256.046 35.8453 256.046 38.5237V38.6142C256.064 40.4782 255.342 41.4102 253.878 41.4102C253.227 41.4102 252.64 41.2836 252.134 41.0302C251.628 40.7768 251.303 40.4511 251.167 40.0529C251.086 39.8177 251.086 38.6413 251.167 36.5059C251.239 34.7233 251.284 33.2393 251.303 32.0449C251.375 29.285 251.402 27.412 251.375 26.4438C251.348 25.4665 251.284 24.8241 251.176 24.5164C251.068 24.2178 250.697 23.8468 250.065 23.4125C249.432 22.9781 249.062 22.5981 248.953 22.2904C248.791 21.8199 249.161 21.5123 250.083 21.3675C250.227 21.3494 250.336 21.3313 250.417 21.3222C250.878 21.2498 251.465 21.0598 252.161 20.7703C252.857 20.4807 253.363 20.3359 253.67 20.3359L253.679 20.345ZM263.302 26.2899C263.944 26.6247 264.486 26.9776 264.911 27.3396C265.335 27.7015 265.597 28.0273 265.706 28.3259C265.841 28.6969 265.823 29.1765 265.661 29.7375C265.498 30.3075 265.218 30.6966 264.829 30.9228C264.64 30.95 264.332 30.9771 263.908 31.0133C262.344 31.1219 261.143 31.4658 260.302 32.0539C259.661 32.5064 259.155 33.0945 258.757 33.8275C258.36 34.5604 258.052 34.9224 257.827 34.9224C257.718 34.9224 257.61 34.8681 257.51 34.7685C257.402 34.669 257.32 34.5423 257.266 34.3885C257.104 33.936 257.203 33.1126 257.555 31.9182C257.908 30.7238 258.45 29.6651 259.191 28.7421C259.724 28.0725 260.339 27.5296 261.034 27.1134C261.73 26.6971 262.489 26.4257 263.311 26.2899H263.302ZM263.239 41.4102C262.48 41.4102 261.82 41.1659 261.269 40.6773C260.709 40.1887 260.266 39.4648 259.923 38.4875C259.543 37.4107 259.354 36.5511 259.345 35.9177C259.336 35.2843 259.525 34.9676 259.887 34.9676C260.113 34.9676 260.655 35.2662 261.495 35.8544C262.335 36.4425 263.031 36.7411 263.582 36.7411C263.926 36.7411 264.35 36.5511 264.838 36.1801C265.326 35.8091 265.706 35.6191 265.977 35.6191C266.176 35.6191 266.347 35.6734 266.483 35.782C266.619 35.8906 266.727 36.0534 266.799 36.2616C266.908 36.5783 266.944 36.9583 266.899 37.4017C266.853 37.8451 266.727 38.2884 266.519 38.7409C266.122 39.6095 265.643 40.2701 265.082 40.7135C264.522 41.1659 263.908 41.3921 263.23 41.3921L263.239 41.4102Z" fill="#C19A5B"/>
<path d="M272.121 41.3726C271.218 41.3726 270.332 41.1192 269.456 40.6125C268.579 40.1057 268.028 39.5266 267.793 38.857C267.558 38.1874 267.639 37.4635 268.055 36.6854C268.471 35.9072 268.977 35.5271 269.582 35.5271C269.898 35.5271 270.179 35.6267 270.414 35.8257C270.648 36.0248 270.838 36.3053 270.965 36.6854C270.983 36.7397 271.019 36.8573 271.073 37.0383C271.127 37.2192 271.173 37.364 271.218 37.4816C271.462 38.1784 271.859 38.8028 272.419 39.3819C272.98 39.961 273.269 40.2777 273.296 40.3591C273.422 40.712 273.395 40.9744 273.215 41.1373C273.034 41.3002 272.663 41.3816 272.121 41.3816V41.3726ZM275.835 41.3726C275.501 41.3726 275.221 41.3092 274.986 41.1735C274.76 41.0468 274.597 40.8568 274.507 40.6034C274.444 40.4315 274.516 40.0605 274.733 39.4814C274.941 38.9113 274.941 38.3232 274.733 37.726C274.516 37.1197 273.422 35.8619 271.453 33.9436L271.082 33.5998L270.974 33.4821C269.492 32.0434 268.633 30.9757 268.389 30.2789C268.046 29.3107 268.118 28.5054 268.615 27.872C269.103 27.2386 269.907 26.9219 271.01 26.9219C271.507 26.9219 271.913 26.9852 272.212 27.1119C272.519 27.2386 272.709 27.4196 272.799 27.6639C272.835 27.7724 272.799 28.0168 272.709 28.4059C272.609 28.7949 272.627 29.1659 272.754 29.5279C272.962 30.107 273.739 31.0571 275.103 32.3873L275.166 32.4415C276.585 33.835 277.525 34.8575 278.004 35.4909C278.483 36.1334 278.835 36.7758 279.061 37.4183C279.449 38.5132 279.314 39.4452 278.654 40.2143C277.995 40.9835 277.055 41.3726 275.853 41.3726H275.835ZM279.332 28.7949C279.621 29.6003 279.585 30.3332 279.242 30.9938C278.898 31.6543 278.383 31.9801 277.724 31.9801C277.118 31.9801 276.558 31.4914 276.043 30.5232C275.889 30.2156 275.754 29.9713 275.654 29.7993C275.392 29.356 275.049 28.9216 274.624 28.4963C274.2 28.0711 273.965 27.7996 273.929 27.691C273.856 27.4829 273.865 27.3019 273.956 27.1481C274.046 27.0033 274.2 26.9219 274.425 26.9219C274.561 26.9219 274.787 26.9671 275.121 27.0486C275.456 27.13 275.709 27.1752 275.889 27.1752C276.088 27.1752 276.341 27.13 276.639 27.0486C276.937 26.9581 277.154 26.9219 277.299 26.9219C277.724 26.9219 278.121 27.0938 278.483 27.4286C278.844 27.7634 279.133 28.2158 279.341 28.7859L279.332 28.7949Z" fill="#C19A5B"/>
<path d="M287.339 24.2355L287.113 35.7906C287.113 36.3788 287.14 37.1841 287.194 38.1976C287.248 39.2201 287.266 39.9168 287.23 40.2878C287.176 40.7312 287.022 41.0207 286.778 41.1565C286.525 41.2922 285.947 41.3646 285.034 41.3646C284.167 41.3646 283.516 41.2832 283.083 41.1203C282.649 40.9574 282.36 40.6859 282.224 40.3149C282.125 40.0435 282.134 39.4644 282.224 38.5686C282.324 37.6727 282.378 36.9398 282.387 36.3788L282.55 26.4796C282.55 25.9909 282.531 25.5476 282.504 25.1494C282.477 24.7513 282.432 24.4889 282.396 24.3622C282.306 24.0998 281.935 23.765 281.285 23.3487C280.634 22.9325 280.254 22.5615 280.137 22.2267C279.983 21.7833 280.291 21.4847 281.077 21.3309C281.257 21.3037 281.402 21.2766 281.501 21.2585C281.935 21.159 282.531 20.978 283.272 20.6975C284.013 20.417 284.556 20.2812 284.899 20.2812C285.36 20.2812 285.812 20.4532 286.263 20.788C286.715 21.1228 287.022 21.53 287.185 22.0005C287.239 22.1543 287.275 22.3986 287.302 22.7334C287.33 23.0682 287.339 23.5659 287.33 24.2355H287.339ZM291.893 41.5365C291.396 41.5365 290.754 41.1293 289.977 40.324L289.887 40.2335L289.814 40.1611C289.055 39.3829 288.622 38.8219 288.504 38.4871C288.423 38.2609 288.423 38.0618 288.495 37.908C288.568 37.7542 288.703 37.6818 288.893 37.6818C289.119 37.6818 289.571 37.7904 290.23 38.0166C290.89 38.2428 291.342 38.3604 291.586 38.3604C292.2 38.3604 292.561 37.7904 292.679 36.6412C292.796 35.492 292.58 34.1619 292.037 32.6326C291.784 31.9088 291.468 31.3658 291.098 30.9858C290.727 30.6148 290.203 30.3162 289.543 30.09C289.453 30.0628 289.318 30.0176 289.137 29.9633C288.495 29.7642 288.134 29.5199 288.034 29.2394C287.962 29.0494 287.971 28.8775 288.062 28.7417C288.143 28.606 288.414 28.4069 288.857 28.1445C289.543 27.7192 290.131 27.4116 290.628 27.2216C291.125 27.0315 291.567 26.932 291.974 26.932C292.823 26.932 293.619 27.2668 294.369 27.9454C295.119 28.6241 295.697 29.538 296.104 30.6781C296.564 31.9811 296.709 33.2932 296.555 34.6143C296.393 35.9445 295.932 37.2294 295.173 38.4781C294.595 39.401 294.007 40.143 293.402 40.695C292.796 41.247 292.29 41.5275 291.884 41.5275L291.893 41.5365Z" fill="#C19A5B"/>
<path d="M308.157 30.2986C307.859 29.8552 307.542 29.5385 307.226 29.3484C306.901 29.1584 306.521 29.0589 306.078 29.0589C305.636 29.0589 305.211 29.1856 304.859 29.4299C304.506 29.6832 304.19 30.0633 303.919 30.57C303.467 31.4025 303.205 32.3435 303.124 33.3841C303.042 34.4247 303.178 35.402 303.503 36.3249C303.693 36.8679 303.937 37.2479 304.244 37.4832C304.551 37.7184 304.967 37.8361 305.491 37.8361C305.554 37.8361 305.69 37.8361 305.871 37.818C306.051 37.7999 306.214 37.7999 306.322 37.7999C306.503 37.7999 306.666 37.8451 306.819 37.9447C306.973 38.0442 307.072 38.1709 307.127 38.3247C307.181 38.4876 307.172 38.6505 307.09 38.8224C307.009 38.9943 306.783 39.2567 306.413 39.6187L306.34 39.691C305.139 40.9307 304.19 41.5551 303.512 41.5551C302.708 41.5551 301.877 41.1479 301.036 40.3335C300.196 39.5191 299.554 38.4966 299.121 37.266C298.678 36.0173 298.524 34.7505 298.669 33.4746C298.813 32.1988 299.229 31.0496 299.916 30.018C300.548 29.086 301.316 28.3621 302.238 27.8554C303.151 27.3487 304.118 27.0953 305.139 27.0953C305.753 27.0953 306.331 27.1768 306.874 27.3487C307.416 27.5206 307.931 27.783 308.437 28.1359L308.545 27.4301C308.581 27.1315 308.744 26.9144 309.024 26.7877C309.304 26.661 309.738 26.5977 310.334 26.5977C311.012 26.5977 311.572 26.6881 311.988 26.8601C312.413 27.032 312.675 27.2854 312.792 27.6111C312.864 27.8102 312.855 28.6155 312.765 30.018C312.684 31.3572 312.62 32.4793 312.593 33.3932C312.593 33.6194 312.566 33.9361 312.539 34.3343C312.476 35.1486 312.503 35.7277 312.62 36.0625C312.738 36.3883 313.018 36.7864 313.461 37.257C313.904 37.7275 314.148 38.0261 314.193 38.1618C314.301 38.4604 314.256 38.8043 314.057 39.2024C313.858 39.6006 313.515 40.0349 313.009 40.5326C312.675 40.8583 312.34 41.1117 312.024 41.2836C311.699 41.4555 311.392 41.546 311.111 41.546C310.551 41.546 309.991 41.2746 309.422 40.7407C308.852 40.1978 308.419 39.5282 308.139 38.7047C307.994 38.2885 307.895 37.827 307.859 37.3203C307.813 36.8136 307.822 36.0625 307.877 35.0672L308.166 30.3076L308.157 30.2986Z" fill="#C19A5B"/>
</svg>
